<?xml version="1.0" encoding="UTF-8" standalone="no"?>
<svg
   xmlns:dc="http://purl.org/dc/elements/1.1/"
   xmlns:cc="http://creativecommons.org/ns#"
   xmlns:rdf="http://www.w3.org/1999/02/22-rdf-syntax-ns#"
   xmlns:svg="http://www.w3.org/2000/svg"
   xmlns="http://www.w3.org/2000/svg"
   xmlns:sodipodi="http://sodipodi.sourceforge.net/DTD/sodipodi-0.dtd"
   xmlns:inkscape="http://www.inkscape.org/namespaces/inkscape"
   height="511pt"
   viewBox="0 -21 511.95733 511"
   width="511pt"
   version="1.1"
   id="svg6"
   sodipodi:docname="full-view.svg"
   inkscape:version="1.0.2 (e86c870879, 2021-01-15)">
  <metadata
     id="metadata12">
    <rdf:RDF>
      <cc:Work
         rdf:about="">
        <dc:format>image/svg+xml</dc:format>
        <dc:type
           rdf:resource="http://purl.org/dc/dcmitype/StillImage" />
        <dc:title />
      </cc:Work>
    </rdf:RDF>
  </metadata>
  <defs
     id="defs10" />
  <sodipodi:namedview
     pagecolor="#ffffff"
     bordercolor="#666666"
     borderopacity="1"
     objecttolerance="10"
     gridtolerance="10"
     guidetolerance="10"
     inkscape:pageopacity="0"
     inkscape:pageshadow="2"
     inkscape:window-width="1910"
     inkscape:window-height="1019"
     id="namedview8"
     showgrid="false"
     inkscape:zoom="1.2578278"
     inkscape:cx="340.66667"
     inkscape:cy="340.66667"
     inkscape:window-x="0"
     inkscape:window-y="0"
     inkscape:window-maximized="1"
     inkscape:current-layer="svg6"
     inkscape:document-rotation="0" />
  <path
     d="m506.675781 261.882812c7.042969-16.984374 7.042969-36.460937 0-53.460937-41.621093-100.398437-140.03125-165.269531-250.707031-165.269531-46.484375 0-90.796875 11.453125-129.644531 32.191406l-68.605469-68.609375c-8.34375-8.339844-21.824219-8.339844-30.167969 0-8.339843 8.339844-8.339843 21.824219 0 30.164063l271.488281 271.488281 86.484376 86.488281 68.675781 68.671875c4.179687 4.179687 9.640625 6.269531 15.101562 6.269531 5.460938 0 10.921875-2.089844 15.082031-6.25 8.34375-8.339844 8.34375-21.824218 0-30.164062l-62.144531-62.144532c36.632813-27.882812 66.09375-65.109374 84.4375-109.375zm-293.90625-100.097656c12.648438-7.574218 27.390625-11.96875 43.199219-11.96875 47.0625 0 85.332031 38.273438 85.332031 85.335938 0 15.804687-4.394531 30.546875-11.96875 43.199218zm0 0"
     id="path2"
     style="fill:#808080;fill-opacity:1" />
  <path
     d="m 255.96875,320.48437 c -47.0625,0 -85.33594,-38.27343 -85.33594,-85.33203 0,-3.09375 0.59766,-6.01953 0.91797,-9.0039 L 65.398438,119.99219 c -25.34375,24.70703 -46.058594,54.46484 -60.117188,88.42968 -7.042969,16.98047 -7.042969,36.45704 0,53.46094 41.597656,100.39453 140.00781,165.26953 250.6875,165.26953 34.49609,0 67.79687,-6.3164 98.55859,-18.02734 l -89.55859,-89.55859 c -2.98438,0.32031 -5.90625,0.91797 -9,0.91796 z m 0,0"
     id="path4"
     style="fill:#808080;fill-opacity:1" />
</svg>
