<?xml version="1.0" encoding="UTF-8" standalone="no"?>
<svg
   xmlns:dc="http://purl.org/dc/elements/1.1/"
   xmlns:cc="http://creativecommons.org/ns#"
   xmlns:rdf="http://www.w3.org/1999/02/22-rdf-syntax-ns#"
   xmlns:svg="http://www.w3.org/2000/svg"
   xmlns="http://www.w3.org/2000/svg"
   xmlns:sodipodi="http://sodipodi.sourceforge.net/DTD/sodipodi-0.dtd"
   xmlns:inkscape="http://www.inkscape.org/namespaces/inkscape"
   height="511pt"
   viewBox="0 -63 511.97867 511"
   width="511pt"
   version="1.1"
   id="svg4"
   sodipodi:docname="minimal-view.svg"
   inkscape:version="1.0.2 (e86c870879, 2021-01-15)">
  <metadata
     id="metadata10">
    <rdf:RDF>
      <cc:Work
         rdf:about="">
        <dc:format>image/svg+xml</dc:format>
        <dc:type
           rdf:resource="http://purl.org/dc/dcmitype/StillImage" />
        <dc:title />
      </cc:Work>
    </rdf:RDF>
  </metadata>
  <defs
     id="defs8" />
  <sodipodi:namedview
     pagecolor="#ffffff"
     bordercolor="#666666"
     borderopacity="1"
     objecttolerance="10"
     gridtolerance="10"
     guidetolerance="10"
     inkscape:pageopacity="0"
     inkscape:pageshadow="2"
     inkscape:window-width="1910"
     inkscape:window-height="1019"
     id="namedview6"
     showgrid="false"
     inkscape:zoom="1.2578278"
     inkscape:cx="340.66667"
     inkscape:cy="340.66667"
     inkscape:window-x="0"
     inkscape:window-y="0"
     inkscape:window-maximized="1"
     inkscape:current-layer="svg4"
     inkscape:document-rotation="0" />
  <path
     d="M 506.69922,165.75781 C 465.07812,65.363281 366.66797,0.488281 255.98828,0.488281 c -110.67578,0 -209.085936,64.875 -250.70703,165.269529 -7.042969,16.98047 -7.042969,36.46094 0,53.46094 41.621094,100.39453 140.03125,165.26953 250.70703,165.26953 110.67969,0 209.08984,-64.875 250.71094,-165.26953 7.03906,-16.98047 7.03906,-36.48047 0,-53.46094 z M 255.98828,277.82422 c -47.05859,0 -85.33203,-38.27344 -85.33203,-85.33594 0,-47.05859 38.27344,-85.33203 85.33203,-85.33203 47.0625,0 85.33594,38.27344 85.33594,85.33203 0,47.0625 -38.27344,85.33594 -85.33594,85.33594 z m 0,0"
     id="path2"
     style="fill:#808080;fill-opacity:1" />
</svg>
